<?xml version="1.0" standalone="no"?><!DOCTYPE svg PUBLIC "-//W3C//DTD SVG 1.1//EN" "http://www.w3.org/Graphics/SVG/1.1/DTD/svg11.dtd"><svg t="1752586807176" class="icon" viewBox="0 0 1024 1024" version="1.1" xmlns="http://www.w3.org/2000/svg" p-id="17511" xmlns:xlink="http://www.w3.org/1999/xlink" width="20" height="20"><path d="M469.22402 0h85.487972v85.487971H469.22402V0zM180.126226 119.849528l60.468662 60.404674-60.468662 60.468662-60.404674-60.468662 60.404674-60.468662z m663.619572 0l60.468662 60.404674-60.468662 60.468662-60.468662-60.468662 60.468662-60.404674zM511.904018 256.079985a255.952009 255.952009 0 1 0 0 511.904018 255.952009 255.952009 0 0 0 0-511.904018zM170.656002 512.095982a341.248016 341.248016 0 1 1 682.496032 0A341.248016 341.248016 0 0 1 170.656002 512.095982z m-170.71999-42.743985h85.487971v85.487971H0V469.22402z m938.512029 0h85.487971v85.487971h-85.487971V469.22402z m-758.257827 314.053115l60.404674 60.468662-60.468662 60.468662-60.404674-60.468662 60.404674-60.404674z m663.555584 0l60.468662 60.468662-60.468662 60.468662-60.468662-60.468662 60.468662-60.404674z m-374.521778 155.170905h85.487972V1024H469.22402v-85.487971z" p-id="17512" fill="#707070"></path></svg>