<?xml version="1.0" standalone="no"?><!DOCTYPE svg PUBLIC "-//W3C//DTD SVG 1.1//EN" "http://www.w3.org/Graphics/SVG/1.1/DTD/svg11.dtd"><svg t="1752585153469" class="icon" viewBox="0 0 1024 1024" version="1.1" xmlns="http://www.w3.org/2000/svg" p-id="15338" width="22" height="22" xmlns:xlink="http://www.w3.org/1999/xlink"><path d="M469.212465 0h85.489751V85.489752h-85.489751V0zM180.151308 119.745376L240.5999 180.193968 180.151308 240.64256 119.702716 180.193968l60.448592-60.448592z m663.612065 0l60.448592 60.448592-60.448592 60.448592-60.448592-60.448592 60.448592-60.448592zM511.914681 256.127979a255.95734 255.95734 0 1 0 0 511.914681 255.95734 255.95734 0 0 0 0-511.914681z m-341.276454 255.95734a341.276454 341.276454 0 1 1 682.552908 0 341.276454 341.276454 0 0 1-682.552908 0z m-170.680887-42.830195h85.489752V554.744876H-0.04266v-85.489752z m938.510249 0h85.489751V554.744876h-85.489751v-85.489752zM180.151308 783.4001l60.448592 60.448592-60.448592 60.491251-60.448592-60.491251 60.448592-60.448592z m663.612065 0l60.448592 60.448592-60.448592 60.448592-60.448592-60.448592 60.448592-60.405932zM469.255124 938.552908h85.489752V1024h-85.489752v-85.489752z" fill="#ffffff" p-id="15339"></path></svg>