<?xml version="1.0" standalone="no"?><!DOCTYPE svg PUBLIC "-//W3C//DTD SVG 1.1//EN" "http://www.w3.org/Graphics/SVG/1.1/DTD/svg11.dtd"><svg t="1752585766893" class="icon" viewBox="0 0 1024 1024" version="1.1" xmlns="http://www.w3.org/2000/svg" p-id="16422" width="20" height="20" xmlns:xlink="http://www.w3.org/1999/xlink"><path d="M495.530667 125.994667a42.666667 42.666667 0 0 1-35.712 48.64 341.333333 341.333333 0 1 0 393.386666 327.765333 42.666667 42.666667 0 0 1 85.333334-2.346667c0.085333 3.968 0.128 7.936 0.128 11.946667 0 235.648-191.018667 426.666667-426.666667 426.666667S85.333333 747.648 85.333333 512c0-213.546667 156.8-390.357333 361.557334-421.717333a42.666667 42.666667 0 0 1 48.64 35.712z" fill="#d3d3d3" p-id="16423"></path><path d="M471.04 93.610667a42.666667 42.666667 0 0 1 21.12 56.490666 256 256 0 0 0 379.306667 316.117334 42.666667 42.666667 0 0 1 48.768 70.016A341.333333 341.333333 0 0 1 414.506667 114.773333a42.666667 42.666667 0 0 1 56.490666-21.162666z" fill="#d3d3d3" p-id="16424"></path></svg>